<svg width="54" height="54" viewBox="0 0 54 54" fill="none" xmlns="http://www.w3.org/2000/svg">
<circle cx="27" cy="27" r="27" fill="#3B79C9"/>
<path fill-rule="evenodd" clip-rule="evenodd" d="M31.3257 29.8987L36.7057 35.2787C36.8948 35.468 37.001 35.7246 37.0009 35.9921C37.0008 36.2596 36.8945 36.5161 36.7052 36.7052C36.516 36.8943 36.2594 37.0005 35.9919 37.0004C35.7244 37.0003 35.4678 36.894 35.2787 36.7047L29.8987 31.3247C28.2905 32.5704 26.268 33.1566 24.2429 32.9641C22.2177 32.7716 20.342 31.8148 18.9972 30.2884C17.6525 28.7619 16.9397 26.7806 17.004 24.7473C17.0683 22.714 17.9047 20.7816 19.3431 19.3431C20.7816 17.9047 22.714 17.0683 24.7473 17.004C26.7806 16.9397 28.7619 17.6525 30.2884 18.9972C31.8148 20.342 32.7716 22.2177 32.9641 24.2429C33.1566 26.268 32.5704 28.2905 31.3247 29.8987H31.3257ZM25.0007 30.9997C26.592 30.9997 28.1182 30.3676 29.2434 29.2424C30.3686 28.1172 31.0007 26.591 31.0007 24.9997C31.0007 23.4084 30.3686 21.8823 29.2434 20.7571C28.1182 19.6319 26.592 18.9997 25.0007 18.9997C23.4094 18.9997 21.8833 19.6319 20.7581 20.7571C19.6329 21.8823 19.0007 23.4084 19.0007 24.9997C19.0007 26.591 19.6329 28.1172 20.7581 29.2424C21.8833 30.3676 23.4094 30.9997 25.0007 30.9997V30.9997Z" fill="white"/>
</svg>
