<svg xmlns="http://www.w3.org/2000/svg" width="139" height="100" viewBox="0 0 139 100" fill="none">
  <mask id="mask0_471_5378" style="mask-type:alpha" maskUnits="userSpaceOnUse" x="0" y="0" width="139" height="100">
    <rect x="0.5" y="0.5" width="138" height="99" rx="5.5" fill="white" stroke="#9A9A9A"/>
  </mask>
  <g mask="url(#mask0_471_5378)">
    <path d="M84.0641 58.7109L80.7633 56.8066L83.3024 56.123C84.1031 55.9082 84.5817 55.0781 84.3668 54.2773L83.9762 52.8223C83.7613 52.0215 82.9313 51.543 82.1305 51.7578L75.2164 53.6133L68.9761 50L75.2066 46.3965L82.1207 48.252C82.9215 48.4668 83.7516 47.9883 83.9664 47.1875L84.3571 45.7324C84.5719 44.9316 84.0934 44.1016 83.2926 43.8867L80.7535 43.2031L84.0543 41.2988C84.777 40.8789 85.0211 39.9609 84.611 39.2383L83.0973 36.6211C82.6774 35.8984 81.7594 35.6543 81.0367 36.0645L77.7359 37.9688L78.4195 35.4297C78.6344 34.6289 78.1558 33.7988 77.3551 33.584L75.9 33.1934C75.0992 32.9785 74.2691 33.457 74.0543 34.2578L72.1988 41.1719L66.0659 44.707V37.1387L71.3101 31.8945C71.9156 31.2891 71.9156 30.293 71.3101 29.6875L70.2066 28.584C69.6011 27.9785 68.605 27.9785 67.9995 28.584L66.0659 30.5078V26.5625C66.0659 25.7031 65.3628 25 64.5034 25H61.3784C60.519 25 59.8159 25.7031 59.8159 26.5625V30.5078L57.8921 28.584C57.2866 27.9785 56.2905 27.9785 55.685 28.584L54.5717 29.6875C53.9565 30.293 53.9565 31.2891 54.5717 31.8945L59.8159 37.1387V44.707L53.6831 41.1719L51.8276 34.2578C51.6127 33.457 50.7827 32.9785 49.9819 33.1934L48.5268 33.584C47.726 33.7988 47.2475 34.6289 47.4623 35.4297L48.1459 37.9688L44.8451 36.0645C44.1225 35.6445 43.2045 35.8984 42.7846 36.6211L41.2709 39.2285C40.851 39.9512 41.1049 40.8691 41.8275 41.2891L45.1283 43.1934L42.5893 43.877C41.7787 44.0918 41.3002 44.9219 41.515 45.7324L41.9057 47.1875C42.1205 47.9883 42.9506 48.4668 43.7514 48.252L50.6655 46.3965L56.896 50L50.6655 53.6035L43.7514 51.748C42.9506 51.5332 42.1205 52.0117 41.9057 52.8125L41.515 54.2676C41.3002 55.0684 41.7787 55.8984 42.5795 56.1133L45.1186 56.7969L41.8178 58.7109C41.0951 59.1309 40.851 60.0488 41.2611 60.7715L42.7748 63.3887C43.1947 64.1113 44.1127 64.3555 44.8354 63.9453L48.1362 62.041L47.4526 64.5801C47.2377 65.3809 47.7162 66.2109 48.517 66.4258L49.9721 66.8164C50.7729 67.0312 51.603 66.5527 51.8178 65.752L53.6733 58.8379L59.8061 55.3027V62.8711L54.562 68.1152C53.9467 68.7207 53.9467 69.7168 54.562 70.3223L55.6655 71.4258C56.271 72.0312 57.2671 72.0312 57.8725 71.4258L59.7964 69.502V73.4375C59.7964 74.2969 60.4995 75 61.3589 75H64.4839C65.3433 75 66.0464 74.2969 66.0464 73.4375V69.4922L67.9702 71.416C68.5757 72.0215 69.5718 72.0215 70.1773 71.416L71.2808 70.3125C71.8863 69.707 71.8863 68.7109 71.2808 68.1055L66.0659 62.8613V55.293L72.1988 58.8281L74.0543 65.7422C74.2691 66.543 75.0992 67.0215 75.9 66.8066L77.3551 66.416C78.1558 66.2012 78.6344 65.3711 78.4195 64.5703L77.7359 62.0312L81.0367 63.9355C81.7594 64.3555 82.6774 64.1016 83.0973 63.3789L84.611 60.7617C85.0309 60.0488 84.7867 59.1211 84.0641 58.7109Z" fill="black"/>
  </g>
</svg>