<svg width="57" height="57" viewBox="0 0 57 57" fill="none" xmlns="http://www.w3.org/2000/svg">
<g id="calendar-alt" clip-path="url(#clip0_385_4889)">
<path id="Vector" d="M3.51562 50.9766C3.51562 53.8879 5.87769 56.25 8.78906 56.25H47.4609C50.3723 56.25 52.7344 53.8879 52.7344 50.9766V21.0938H3.51562V50.9766ZM38.6719 29.4434C38.6719 28.7183 39.2651 28.125 39.9902 28.125H44.3848C45.1099 28.125 45.7031 28.7183 45.7031 29.4434V33.8379C45.7031 34.563 45.1099 35.1562 44.3848 35.1562H39.9902C39.2651 35.1562 38.6719 34.563 38.6719 33.8379V29.4434ZM38.6719 43.5059C38.6719 42.7808 39.2651 42.1875 39.9902 42.1875H44.3848C45.1099 42.1875 45.7031 42.7808 45.7031 43.5059V47.9004C45.7031 48.6255 45.1099 49.2188 44.3848 49.2188H39.9902C39.2651 49.2188 38.6719 48.6255 38.6719 47.9004V43.5059ZM24.6094 29.4434C24.6094 28.7183 25.2026 28.125 25.9277 28.125H30.3223C31.0474 28.125 31.6406 28.7183 31.6406 29.4434V33.8379C31.6406 34.563 31.0474 35.1562 30.3223 35.1562H25.9277C25.2026 35.1562 24.6094 34.563 24.6094 33.8379V29.4434ZM24.6094 43.5059C24.6094 42.7808 25.2026 42.1875 25.9277 42.1875H30.3223C31.0474 42.1875 31.6406 42.7808 31.6406 43.5059V47.9004C31.6406 48.6255 31.0474 49.2188 30.3223 49.2188H25.9277C25.2026 49.2188 24.6094 48.6255 24.6094 47.9004V43.5059ZM10.5469 29.4434C10.5469 28.7183 11.1401 28.125 11.8652 28.125H16.2598C16.9849 28.125 17.5781 28.7183 17.5781 29.4434V33.8379C17.5781 34.563 16.9849 35.1562 16.2598 35.1562H11.8652C11.1401 35.1562 10.5469 34.563 10.5469 33.8379V29.4434ZM10.5469 43.5059C10.5469 42.7808 11.1401 42.1875 11.8652 42.1875H16.2598C16.9849 42.1875 17.5781 42.7808 17.5781 43.5059V47.9004C17.5781 48.6255 16.9849 49.2188 16.2598 49.2188H11.8652C11.1401 49.2188 10.5469 48.6255 10.5469 47.9004V43.5059ZM47.4609 7.03125H42.1875V1.75781C42.1875 0.791016 41.3965 0 40.4297 0H36.9141C35.9473 0 35.1562 0.791016 35.1562 1.75781V7.03125H21.0938V1.75781C21.0938 0.791016 20.3027 0 19.3359 0H15.8203C14.8535 0 14.0625 0.791016 14.0625 1.75781V7.03125H8.78906C5.87769 7.03125 3.51562 9.39331 3.51562 12.3047V17.5781H52.7344V12.3047C52.7344 9.39331 50.3723 7.03125 47.4609 7.03125Z" fill="black"/>
<rect id="Rectangle 115" x="3" y="16.5" width="50.25" height="6" rx="1.5" fill="black"/>
<rect id="Rectangle 110" x="10.5" y="14.25" width="7.5" height="7.5" rx="1.5" fill="white"/>
<rect id="Rectangle 111" x="24" y="14.25" width="7.5" height="7.5" rx="1.5" fill="white"/>
<rect id="Rectangle 112" x="37.5" y="14.25" width="7.5" height="7.5" rx="1.5" fill="white"/>
<rect id="Rectangle 113" x="10.5" y="42" width="7.5" height="11.25" rx="1.5" fill="white"/>
<path id="Rectangle 114" d="M0 53.25C0 52.4216 0.671573 51.75 1.5 51.75H54C54.8284 51.75 55.5 52.4216 55.5 53.25V56.25H0V53.25Z" fill="black"/>
</g>
<defs>
<clipPath id="clip0_385_4889">
<rect width="56.25" height="56.25" fill="white"/>
</clipPath>
</defs>
</svg>
