<svg width="243" height="243" viewBox="0 0 243 243" fill="none" xmlns="http://www.w3.org/2000/svg">
<path id="Vector" d="M242.188 121.094C242.188 187.972 187.972 242.188 121.094 242.188C54.2153 242.188 0 187.972 0 121.094C0 54.2153 54.2153 0 121.094 0C187.972 0 242.188 54.2153 242.188 121.094ZM107.087 185.212L196.931 95.3682C199.981 92.3174 199.981 87.3706 196.931 84.3198L185.882 73.2715C182.832 70.2202 177.885 70.2202 174.833 73.2715L101.562 146.542L67.354 112.333C64.3032 109.283 59.3564 109.283 56.3052 112.333L45.2568 123.382C42.2061 126.433 42.2061 131.379 45.2568 134.43L96.0381 185.211C99.0894 188.263 104.036 188.263 107.087 185.212Z" fill="#3B79C9"/>
</svg>
