<svg xmlns="http://www.w3.org/2000/svg" width="51" height="51" viewBox="0 0 51 51" fill="none">
  <g clip-path="url(#clip0_388_4727)">
    <path d="M46.0105 3.07119L29.6042 5.80557C28.4974 5.99004 28.625 7.12109 28.625 7.53125H22.9285C23.972 4.02617 21.3443 0.5 17.6875 0.5C13.8364 0.5 11.2063 4.37461 12.5871 7.9417C7.50518 9.21621 5.22569 13.2359 3.79327 16.8171C3.31251 18.0189 3.89708 19.3829 5.09893 19.8637C6.30177 20.3447 7.66524 19.7587 8.14542 18.558C10.9549 11.5342 14.0707 12.2188 20.0313 12.2188V14.8629C15.9743 15.9236 13 19.671 13 24.0552V48.1562C13 49.4507 14.0493 50.5 15.3438 50.5H29.4063C30.7007 50.5 31.75 49.4507 31.75 48.1562V23.9375C31.75 19.5692 28.7621 15.8992 24.7188 14.8584V12.2188H28.625C28.625 12.5092 28.4587 13.7535 29.6042 13.9444L46.0105 16.6788C46.7248 16.7979 47.375 16.2471 47.375 15.5229V4.22715C47.375 3.50293 46.7248 2.95215 46.0105 3.07119ZM17.6875 7.53125C16.826 7.53125 16.125 6.83027 16.125 5.96875C16.125 5.10723 16.826 4.40625 17.6875 4.40625C18.549 4.40625 19.25 5.10723 19.25 5.96875C19.25 6.83027 18.549 7.53125 17.6875 7.53125Z" fill="black"/>
  </g>
  <defs>
    <clipPath id="clip0_388_4727">
      <rect width="50" height="50" fill="white" transform="translate(0.5 0.5)"/>
    </clipPath>
  </defs>
</svg>