<svg xmlns="http://www.w3.org/2000/svg" width="51" height="51" viewBox="0 0 51 51" fill="none">
  <g clip-path="url(#clip0_388_4739)">
    <path d="M0.480469 10.2214V40.7769C0.480469 43.0773 2.34679 44.9436 4.64714 44.9436H8.8138V6.05469H4.64714C2.34679 6.05469 0.480469 7.92101 0.480469 10.2214ZM11.5916 44.9436H39.3694V6.05469H11.5916V44.9436ZM17.1471 23.4158C17.1471 23.0339 17.4596 22.7214 17.8416 22.7214H22.7027V17.8602C22.7027 17.4783 23.0152 17.1658 23.3971 17.1658H27.5638C27.9457 17.1658 28.2582 17.4783 28.2582 17.8602V22.7214H33.1194C33.5013 22.7214 33.8138 23.0339 33.8138 23.4158V27.5825C33.8138 27.9644 33.5013 28.2769 33.1194 28.2769H28.2582V33.138C28.2582 33.52 27.9457 33.8325 27.5638 33.8325H23.3971C23.0152 33.8325 22.7027 33.52 22.7027 33.138V28.2769H17.8416C17.4596 28.2769 17.1471 27.9644 17.1471 27.5825V23.4158ZM46.3138 6.05469H42.1471V44.9436H46.3138C48.6141 44.9436 50.4805 43.0773 50.4805 40.7769V10.2214C50.4805 7.92101 48.6141 6.05469 46.3138 6.05469Z" fill="black"/>
  </g>
  <defs>
    <clipPath id="clip0_388_4739">
      <rect width="50" height="50" fill="white" transform="translate(0.480469 0.5)"/>
    </clipPath>
  </defs>
</svg>