<svg width="57" height="57" viewBox="0 0 57 57" fill="none" xmlns="http://www.w3.org/2000/svg">
<g id="building" clip-path="url(#clip0_385_4900)">
<path id="Vector" d="M51.416 52.7344H49.2188V2.63672C49.2188 1.18048 48.0383 0 46.582 0H9.66797C8.21173 0 7.03125 1.18048 7.03125 2.63672V52.7344H4.83398C4.10592 52.7344 3.51562 53.3247 3.51562 54.0527V56.25H52.7344V54.0527C52.7344 53.3247 52.1441 52.7344 51.416 52.7344ZM17.5781 8.34961C17.5781 7.62155 18.1684 7.03125 18.8965 7.03125H23.291C24.0191 7.03125 24.6094 7.62155 24.6094 8.34961V12.7441C24.6094 13.4722 24.0191 14.0625 23.291 14.0625H18.8965C18.1684 14.0625 17.5781 13.4722 17.5781 12.7441V8.34961ZM17.5781 18.8965C17.5781 18.1684 18.1684 17.5781 18.8965 17.5781H23.291C24.0191 17.5781 24.6094 18.1684 24.6094 18.8965V23.291C24.6094 24.0191 24.0191 24.6094 23.291 24.6094H18.8965C18.1684 24.6094 17.5781 24.0191 17.5781 23.291V18.8965ZM23.291 35.1562H18.8965C18.1684 35.1562 17.5781 34.566 17.5781 33.8379V29.4434C17.5781 28.7153 18.1684 28.125 18.8965 28.125H23.291C24.0191 28.125 24.6094 28.7153 24.6094 29.4434V33.8379C24.6094 34.566 24.0191 35.1562 23.291 35.1562ZM31.6406 52.7344H24.6094V43.5059C24.6094 42.7778 25.1997 42.1875 25.9277 42.1875H30.3223C31.0503 42.1875 31.6406 42.7778 31.6406 43.5059V52.7344ZM38.6719 33.8379C38.6719 34.566 38.0816 35.1562 37.3535 35.1562H32.959C32.2309 35.1562 31.6406 34.566 31.6406 33.8379V29.4434C31.6406 28.7153 32.2309 28.125 32.959 28.125H37.3535C38.0816 28.125 38.6719 28.7153 38.6719 29.4434V33.8379ZM38.6719 23.291C38.6719 24.0191 38.0816 24.6094 37.3535 24.6094H32.959C32.2309 24.6094 31.6406 24.0191 31.6406 23.291V18.8965C31.6406 18.1684 32.2309 17.5781 32.959 17.5781H37.3535C38.0816 17.5781 38.6719 18.1684 38.6719 18.8965V23.291ZM38.6719 12.7441C38.6719 13.4722 38.0816 14.0625 37.3535 14.0625H32.959C32.2309 14.0625 31.6406 13.4722 31.6406 12.7441V8.34961C31.6406 7.62155 32.2309 7.03125 32.959 7.03125H37.3535C38.0816 7.03125 38.6719 7.62155 38.6719 8.34961V12.7441Z" fill="black"/>
</g>
<defs>
<clipPath id="clip0_385_4900">
<rect width="56.25" height="56.25" fill="white"/>
</clipPath>
</defs>
</svg>
