<svg width="139" height="100" viewBox="0 0 139 100" fill="none" xmlns="http://www.w3.org/2000/svg">
<g id="Group 21">
<mask id="mask0_385_4887" style="mask-type:alpha" maskUnits="userSpaceOnUse" x="0" y="0" width="139" height="100">
<rect id="Rectangle 80" x="0.5" y="0.5" width="138" height="99" rx="5.5" fill="white" stroke="#9A9A9A"/>
</mask>
<g mask="url(#mask0_385_4887)">
<path id="Vector" d="M68.3813 39.3486L50.3765 54.1777V70.1826C50.3765 70.597 50.5411 70.9944 50.8341 71.2875C51.1271 71.5805 51.5246 71.7451 51.939 71.7451L62.8823 71.7168C63.2954 71.7147 63.6908 71.5492 63.9821 71.2564C64.2735 70.9636 64.437 70.5673 64.437 70.1543V60.8076C64.437 60.3932 64.6016 59.9958 64.8947 59.7028C65.1877 59.4097 65.5851 59.2451 65.9995 59.2451H72.2495C72.6639 59.2451 73.0613 59.4097 73.3544 59.7028C73.6474 59.9958 73.812 60.3932 73.812 60.8076V70.1475C73.8114 70.3531 73.8513 70.5568 73.9295 70.7469C74.0078 70.937 74.1228 71.1099 74.2679 71.2555C74.4131 71.4011 74.5855 71.5166 74.7754 71.5954C74.9653 71.6743 75.1689 71.7148 75.3745 71.7148L86.314 71.7451C86.7284 71.7451 87.1258 71.5805 87.4188 71.2875C87.7118 70.9944 87.8765 70.597 87.8765 70.1826V54.167L69.8755 39.3486C69.6639 39.1781 69.4002 39.085 69.1284 39.085C68.8566 39.085 68.593 39.1781 68.3813 39.3486ZM96.8218 49.4277L88.6577 42.6982V29.1719C88.6577 28.8611 88.5342 28.563 88.3145 28.3432C88.0947 28.1235 87.7966 28 87.4858 28H82.0171C81.7063 28 81.4082 28.1235 81.1884 28.3432C80.9687 28.563 80.8452 28.8611 80.8452 29.1719V36.2627L72.102 29.0693C71.263 28.3789 70.2101 28.0014 69.1235 28.0014C68.0369 28.0014 66.9841 28.3789 66.145 29.0693L41.4253 49.4277C41.3066 49.5258 41.2085 49.6463 41.1364 49.7823C41.0643 49.9184 41.0197 50.0673 41.0052 50.2206C40.9907 50.3738 41.0065 50.5284 41.0518 50.6756C41.0971 50.8227 41.1709 50.9595 41.269 51.0781L43.7593 54.1055C43.8572 54.2245 43.9776 54.323 44.1136 54.3955C44.2496 54.4679 44.3986 54.5128 44.5519 54.5276C44.7053 54.5424 44.8601 54.5268 45.0075 54.4816C45.1548 54.4365 45.2918 54.3628 45.4106 54.2647L68.3813 35.3447C68.593 35.1741 68.8566 35.0811 69.1284 35.0811C69.4002 35.0811 69.6639 35.1741 69.8755 35.3447L92.8472 54.2647C92.9658 54.3628 93.1026 54.4366 93.2497 54.4819C93.3969 54.5272 93.5515 54.543 93.7047 54.5285C93.858 54.514 94.0069 54.4694 94.1429 54.3973C94.279 54.3252 94.3995 54.2271 94.4976 54.1084L96.9878 51.0811C97.0858 50.9618 97.1593 50.8243 97.2041 50.6765C97.2488 50.5287 97.2639 50.3735 97.2485 50.2199C97.233 50.0662 97.1874 49.9172 97.1142 49.7812C97.041 49.6453 96.9416 49.5252 96.8218 49.4277Z" fill="black"/>
</g>
</g>
</svg>
