<svg xmlns="http://www.w3.org/2000/svg" width="64" height="64" viewBox="0 0 64 64" fill="none">
  <path fill-rule="evenodd" clip-rule="evenodd" d="M16 6C13.7909 6 12 7.79086 12 10V18C12 18.5671 12.118 19.1066 12.3308 19.5953C12.0327 19.9913 11.8049 20.4474 11.6685 20.9475L6.07047 41.4738L6 41.7322V42V52C6 53.1046 6.89543 54 8 54H12V56C12 57.1046 12.8954 58 14 58C15.1046 58 16 57.1046 16 56V54H48V56C48 57.1046 48.8954 58 50 58C51.1046 58 52 57.1046 52 56V54H56C57.1046 54 58 53.1046 58 52V42V41.7322L57.9295 41.4738L52.3315 20.9475C52.1951 20.4474 51.9673 19.9914 51.6692 19.5953C51.882 19.1066 52 18.5671 52 18V10C52 7.79086 50.2091 6 48 6H16ZM15.5276 22L16 22H20C20 23.1046 20.8954 24 22 24H28C29.1046 24 30 23.1046 30 22H34C34 23.1046 34.8954 24 36 24H42C43.1046 24 44 23.1046 44 22H48H48.4724L53.3815 40H10.6185L15.5276 22ZM44 18H48V10H16V18H20V16C20 14.8954 20.8954 14 22 14H28C29.1046 14 30 14.8954 30 16V18H34V16C34 14.8954 34.8954 14 36 14H42C43.1046 14 44 14.8954 44 16V18ZM10 44H54V50H50H14H10V44Z" fill="black"/>
</svg>