<svg xmlns="http://www.w3.org/2000/svg" width="100" height="78" viewBox="0 0 100 78" fill="none">
<path d="M83.3333 66.776V69.5538C83.3333 74.1562 79.6024 77.8871 75 77.8871H8.33333C3.7309 77.8871 0 74.1562 0 69.5538V25.1094C0 20.5069 3.7309 16.776 8.33333 16.776H11.1111V52.8871C11.1111 60.5455 17.3417 66.776 25 66.776H83.3333ZM100 52.8871V8.44271C100 3.84028 96.2691 0.109375 91.6667 0.109375H25C20.3976 0.109375 16.6667 3.84028 16.6667 8.44271V52.8871C16.6667 57.4896 20.3976 61.2205 25 61.2205H91.6667C96.2691 61.2205 100 57.4896 100 52.8871ZM44.4444 16.776C44.4444 21.3785 40.7135 25.1094 36.1111 25.1094C31.5087 25.1094 27.7778 21.3785 27.7778 16.776C27.7778 12.1736 31.5087 8.44271 36.1111 8.44271C40.7135 8.44271 44.4444 12.1736 44.4444 16.776ZM27.7778 41.776L37.4158 32.138C38.2293 31.3245 39.5484 31.3245 40.3621 32.138L47.2222 38.9983L70.7491 15.4714C71.5627 14.6578 72.8818 14.6578 73.6955 15.4714L88.8889 30.6649V50.1094H27.7778V41.776Z" fill="black"/>
</svg>
