<svg xmlns="http://www.w3.org/2000/svg" width="51" height="51" viewBox="0 0 51 51" fill="none">
  <g clip-path="url(#clip0_388_4748)">
    <path d="M29.6667 42.1662H1.88889C1.12153 42.1662 0.5 42.7878 0.5 43.5551V46.3329C0.5 47.1003 1.12153 47.7218 1.88889 47.7218H29.6667C30.434 47.7218 31.0556 47.1003 31.0556 46.3329V43.5551C31.0556 42.7878 30.434 42.1662 29.6667 42.1662ZM47.7222 14.3885V10.2218C47.7222 9.45443 47.1007 8.8329 46.3333 8.8329C45.566 8.8329 44.9444 9.45443 44.9444 10.2218V14.3885H42.1667V10.2218C42.1667 9.45443 41.5451 8.8329 40.7778 8.8329C40.0104 8.8329 39.3889 9.45443 39.3889 10.2218V14.3885H38C37.2326 14.3885 36.6111 15.01 36.6111 15.7773V18.5551C36.6111 21.6593 38.6615 24.2574 41.4722 25.1463V35.4319C41.4722 36.6428 40.6476 37.7687 39.4531 37.9657C37.9323 38.2166 36.6111 37.0438 36.6111 35.569V33.1385C36.6111 28.9197 33.191 25.4996 28.9722 25.4996H28.2778V8.8329C28.2778 5.76432 25.7908 3.27734 22.7222 3.27734H8.83333C5.76476 3.27734 3.27778 5.76432 3.27778 8.8329V39.3885H28.2778V29.6662H28.9722C30.8898 29.6662 32.4444 31.2209 32.4444 33.1385V35.2747C32.4444 38.7183 34.9549 41.799 38.3828 42.1332C42.3151 42.5178 45.6389 39.424 45.6389 35.569V25.1463C48.4496 24.2574 50.5 21.6593 50.5 18.5551V15.7773C50.5 15.01 49.8785 14.3885 49.1111 14.3885H47.7222ZM23.0773 18.5343L14.9436 30.6003C14.7526 30.8893 14.4045 31.0551 14.0417 31.0551C13.3759 31.0551 12.8724 30.51 13.0286 29.9336L15.0269 22.7218H9.875C9.24566 22.7218 8.75955 22.2365 8.84288 21.6897L10.2318 12.4015C10.3003 11.9492 10.7413 11.6107 11.2639 11.6107H17.1667C17.8507 11.6107 18.349 12.1784 18.1736 12.7574L17.1667 17.1662H22.1753C22.9774 17.1662 23.4783 17.9284 23.0773 18.5343Z" fill="black"/>
  </g>
  <defs>
    <clipPath id="clip0_388_4748">
      <rect width="50" height="50" fill="white" transform="translate(0.5 0.5)"/>
    </clipPath>
  </defs>
</svg>