<svg xmlns="http://www.w3.org/2000/svg" width="50" height="50" viewBox="0 0 50 50" fill="none">
  <g clip-path="url(#clip0_471_5386)">
    <path d="M48.4474 37.663L49.8367 40.4621C50.2204 41.2351 49.9048 42.1727 49.1318 42.5563L42.7388 45.7679C41.1715 46.5459 39.2665 45.8845 38.5211 44.2977L32.3905 31.25H18.75C17.1948 31.25 15.8764 30.1064 15.6563 28.5669C12.347 5.40117 12.5371 6.84023 12.5 6.25C12.5 2.69941 15.4607 -0.159672 19.048 0.00692962C22.2972 0.157809 24.9121 2.82968 24.9978 6.08125C25.0825 9.29736 22.7368 11.9819 19.6649 12.4327L20.121 15.6251H32.8125C33.6755 15.6251 34.375 16.3246 34.375 17.1876V20.3126C34.375 21.1756 33.6755 21.8751 32.8125 21.8751H21.0139L21.4604 25.0001H34.375C34.9683 25.0001 35.5494 25.169 36.0502 25.4871C36.5511 25.8051 36.951 26.2592 37.2033 26.7962L42.82 38.75L46.353 36.9581C47.126 36.5744 48.0637 36.89 48.4474 37.663ZM30.4061 34.375H28.0129C27.2523 39.6684 22.6879 43.75 17.1875 43.75C11.1565 43.75 6.25 38.8435 6.25 32.8125C6.25 28.7593 8.46621 25.214 11.7504 23.3246C11.3879 20.789 11.082 18.6508 10.8238 16.8468C4.48789 19.3812 0 25.5823 0 32.8125C0 42.2897 7.71025 50 17.1875 50C24.2061 50 30.2545 45.7707 32.9209 39.7273L30.4061 34.375Z" fill="black"/>
  </g>
  <defs>
    <clipPath id="clip0_471_5386">
      <rect width="50" height="50" fill="white"/>
    </clipPath>
  </defs>
</svg>