<svg width="51" height="40" viewBox="0 0 51 40" fill="none" xmlns="http://www.w3.org/2000/svg">
<path id="Vector" d="M9.51397 10.6956L17.4912 13.6003C20.2404 7.23005 24.2263 2.32776 28.3505 0.0301317C20.8599 -0.351895 13.6022 2.9176 8.93428 8.76441C8.41163 9.42065 8.72647 10.4089 9.51397 10.6956ZM19.8459 14.4581L38.4769 21.2416C41.2707 11.7589 39.9379 3.14338 35.1465 1.39965C34.5684 1.18871 33.9645 1.08715 33.3426 1.08715C28.8099 1.08793 23.3216 6.491 19.8459 14.4581ZM41.2402 4.72695C41.7261 6.00038 42.0863 7.43005 42.2714 9.03863C42.7199 12.9362 42.1605 17.494 40.791 22.0838L48.8081 25.0025C49.5963 25.2892 50.4729 24.7345 50.4932 23.8955C50.6745 16.4198 47.219 9.2519 41.2402 4.72695ZM44.2495 34.9985H25.5825L30.6559 21.0549L25.9575 19.344L20.2623 34.9977H1.74999C1.05937 34.9977 0.5 35.5571 0.5 36.2485V38.7492C0.5 39.4399 1.05937 40 1.74999 40H44.2495C44.9401 40 45.4995 39.4399 45.4995 38.7492V36.2485C45.4995 35.5579 44.9401 34.9985 44.2495 34.9985Z" fill="black"/>
</svg>
