<svg width="139" height="100" viewBox="0 0 139 100" fill="none" xmlns="http://www.w3.org/2000/svg">
<g id="Group 20">
<mask id="mask0_385_4880" style="mask-type:alpha" maskUnits="userSpaceOnUse" x="0" y="0" width="139" height="100">
<rect id="Rectangle 84" x="0.5" y="0.5" width="138" height="99" rx="5.5" fill="white" stroke="#9A9A9A"/>
</mask>
<g mask="url(#mask0_385_4880)">
<path id="Vector" d="M56.4688 47.875C60.3456 47.875 63.5 44.7206 63.5 40.8438C63.5 36.9669 60.3456 33.8125 56.4688 33.8125C52.5919 33.8125 49.4375 36.9669 49.4375 40.8438C49.4375 44.7206 52.5919 47.875 56.4688 47.875ZM87.4062 36.625H67.7188C66.9418 36.625 66.3125 37.2543 66.3125 38.0312V50.6875H46.625V32.4062C46.625 31.6293 45.9957 31 45.2188 31H42.4062C41.6293 31 41 31.6293 41 32.4062V63.3438C41 64.1207 41.6293 64.75 42.4062 64.75H45.2188C45.9957 64.75 46.625 64.1207 46.625 63.3438V59.125H91.625V63.3438C91.625 64.1207 92.2543 64.75 93.0312 64.75H95.8438C96.6207 64.75 97.25 64.1207 97.25 63.3438V46.4688C97.25 41.0318 92.8432 36.625 87.4062 36.625Z" fill="black"/>
</g>
</g>
</svg>
