<svg width="52" height="52" viewBox="0 0 52 52" fill="none" xmlns="http://www.w3.org/2000/svg">
<circle cx="26" cy="26" r="26" fill="#E2F1FF"/>
<path d="M19.9641 37.8599L38.439 27.514C38.7104 27.362 38.9364 27.1404 39.0937 26.872C39.2511 26.6036 39.334 26.2981 39.334 25.987C39.334 25.6759 39.2511 25.3704 39.0937 25.102C38.9364 24.8337 38.7104 24.612 38.439 24.46L19.9641 14.114C19.6533 13.9399 19.2967 13.8649 18.942 13.8989C18.5873 13.9328 18.2515 14.0743 17.9794 14.3043C17.7072 14.5343 17.5118 14.8418 17.4192 15.1859C17.3265 15.5299 17.3411 15.894 17.461 16.2296L20.9456 25.9869L17.461 35.7445C17.3924 35.9355 17.3572 36.137 17.3569 36.34C17.3587 36.6447 17.4398 36.9436 17.5923 37.2074C17.7449 37.4711 17.9635 37.6905 18.2267 37.844C18.4899 37.9974 18.7886 38.0796 19.0933 38.0824C19.3979 38.0852 19.698 38.0085 19.964 37.8599L19.9641 37.8599ZM22.4916 26.862L28.8749 26.862C29.107 26.862 29.3295 26.7698 29.4936 26.6057C29.6577 26.4416 29.7499 26.2191 29.7499 25.987C29.7499 25.755 29.6577 25.5324 29.4936 25.3683C29.3295 25.2042 29.107 25.112 28.8749 25.112L22.4916 25.112L19.1099 15.6415L37.5841 25.987L19.1094 36.3321L22.4916 26.862Z" fill="#3B79C9"/>
</svg>
