<svg xmlns="http://www.w3.org/2000/svg" width="64" height="64" viewBox="0 0 64 64" fill="none">
  <path fill-rule="evenodd" clip-rule="evenodd" d="M14 28C14 26.8955 14.8954 26 16 26H36C37.1046 26 38 26.8955 38 28V48C38 49.1046 37.1046 50 36 50H16C14.8954 50 14 49.1046 14 48V28ZM18 30V46H34V30H18Z" fill="black"/>
  <path d="M46 30C47.1046 30 48 29.1046 48 28C48 26.8955 47.1046 26 46 26C44.8954 26 44 26.8955 44 28C44 29.1046 44.8954 30 46 30Z" fill="black"/>
  <path d="M48 34C48 35.1046 47.1046 36 46 36C44.8954 36 44 35.1046 44 34C44 32.8955 44.8954 32 46 32C47.1046 32 48 32.8955 48 34Z" fill="black"/>
  <path d="M46 42C47.1046 42 48 41.1046 48 40C48 38.8955 47.1046 38 46 38C44.8954 38 44 38.8955 44 40C44 41.1046 44.8954 42 46 42Z" fill="black"/>
  <path fill-rule="evenodd" clip-rule="evenodd" d="M45.5364 9.28042C46.2436 8.43187 46.1289 7.17074 45.2804 6.46361C44.4318 5.75648 43.1707 5.87113 42.4636 6.71968L33.0633 18.0001H30.9367L21.5364 6.71968C20.8293 5.87113 19.5682 5.75648 18.7196 6.46361C17.8711 7.17074 17.7564 8.43187 18.4636 9.28042L25.7299 18.0001H12C8.68629 18.0001 6 20.6863 6 24V52C6 55.3138 8.68629 58 12 58H52C55.3137 58 58 55.3138 58 52V24C58 20.6863 55.3137 18.0001 52 18.0001H38.2701L45.5364 9.28042ZM12 22C10.8954 22 10 22.8955 10 24V52C10 53.1046 10.8954 54 12 54H52C53.1046 54 54 53.1046 54 52V24C54 22.8955 53.1046 22 52 22H12Z" fill="black"/>
</svg>