<svg xmlns="http://www.w3.org/2000/svg" width="64" height="64" viewBox="0 0 64 64" fill="none">
  <path fill-rule="evenodd" clip-rule="evenodd" d="M32 22C24.268 22 18 28.268 18 36C18 43.732 24.268 50 32 50C39.732 50 46 43.732 46 36C46 28.268 39.732 22 32 22ZM22.6419 32.4672C24.0694 28.6878 27.7208 26 32 26C37.1166 26 41.3357 29.8427 41.9287 34.7996L40.1652 35.6813C37.9136 36.8071 35.1943 36.3658 33.4142 34.5858C30.5722 31.7438 26.3082 30.9284 22.6419 32.4672ZM22.0713 37.2004C22.6643 42.1573 26.8834 46 32 46C36.2792 46 39.9306 43.3122 41.3581 39.5328C37.6918 41.0716 33.4278 40.2562 30.5858 37.4142C28.8057 35.6342 26.0864 35.1929 23.8348 36.3187L22.0713 37.2004Z" fill="black"/>
  <path d="M18 16C18 17.1046 17.1046 18 16 18C14.8954 18 14 17.1046 14 16C14 14.8954 14.8954 14 16 14C17.1046 14 18 14.8954 18 16Z" fill="black"/>
  <path d="M22 18C23.1046 18 24 17.1046 24 16C24 14.8954 23.1046 14 22 14C20.8954 14 20 14.8954 20 16C20 17.1046 20.8954 18 22 18Z" fill="black"/>
  <path d="M30 16C30 17.1046 29.1046 18 28 18C26.8954 18 26 17.1046 26 16C26 14.8954 26.8954 14 28 14C29.1046 14 30 14.8954 30 16Z" fill="black"/>
  <path fill-rule="evenodd" clip-rule="evenodd" d="M12 6C8.68629 6 6 8.68629 6 12V52C6 55.3137 8.68629 58 12 58H52C55.3137 58 58 55.3137 58 52V12C58 8.68629 55.3137 6 52 6H12ZM10 12C10 10.8954 10.8954 10 12 10H52C53.1046 10 54 10.8954 54 12V52C54 53.1046 53.1046 54 52 54H12C10.8954 54 10 53.1046 10 52V12Z" fill="black"/>
</svg>