<svg xmlns="http://www.w3.org/2000/svg" width="139" height="100" viewBox="0 0 139 100" fill="none">
  <mask id="mask0_471_5366" style="mask-type:alpha" maskUnits="userSpaceOnUse" x="0" y="0" width="139" height="100">
    <rect x="0.5" y="0.5" width="138" height="99" rx="5.5" fill="white" stroke="#9A9A9A"/>
  </mask>
  <g mask="url(#mask0_471_5366)">
    <path d="M68.8691 26C63.6164 26 58.4152 27.0346 53.5623 29.0448C48.7094 31.055 44.3 34.0014 40.5858 37.7157C39.8047 38.4968 39.8047 39.7631 40.5858 40.5442C41.3668 41.3252 42.6331 41.3252 43.4141 40.5442C46.7569 37.2013 50.7254 34.5495 55.093 32.7403C59.4606 30.9312 64.1417 30 68.8691 30C73.5966 30 78.2777 30.9312 82.6453 32.7403C87.0129 34.5495 90.9814 37.2012 94.3242 40.5442C95.1052 41.3252 96.3715 41.3252 97.1525 40.5442C97.9335 39.7631 97.9335 38.4968 97.1525 37.7157C93.4383 34.0014 89.0289 31.055 84.176 29.0448C79.3231 27.0346 74.1218 26 68.8691 26Z" fill="black"/>
    <path d="M58.1544 38.1314C61.5514 36.7242 65.1923 36 68.8691 36C72.546 36 76.1869 36.7242 79.5839 38.1314C82.9809 39.5385 86.0676 41.601 88.6675 44.201C89.4485 44.9821 89.4485 46.2484 88.6675 47.0294C87.8865 47.8105 86.6202 47.8105 85.8392 47.0294C83.6106 44.8008 80.965 43.033 78.0533 41.8269C75.1415 40.6208 72.0208 40 68.8691 40C65.7175 40 62.5968 40.6208 59.685 41.8269C56.7733 43.033 54.1277 44.8008 51.8991 47.0294C51.1181 47.8105 49.8518 47.8105 49.0708 47.0294C48.2898 46.2484 48.2898 44.9821 49.0708 44.201C51.6707 41.601 54.7573 39.5385 58.1544 38.1314Z" fill="black"/>
    <path d="M68.8692 46C66.7681 46 64.6876 46.4139 62.7464 47.2179C60.8053 48.022 59.0415 49.2006 57.5558 50.6863C56.7748 51.4673 56.7748 52.7337 57.5558 53.5147C58.3368 54.2958 59.6031 54.2958 60.3841 53.5147C61.4984 52.4004 62.8212 51.5165 64.2771 50.9134C65.733 50.3104 67.2933 50 68.8692 50C70.445 50 72.0054 50.3104 73.4612 50.9134C74.9171 51.5165 76.2399 52.4004 77.3542 53.5147C78.1352 54.2958 79.4015 54.2958 80.1825 53.5147C80.9635 52.7337 80.9635 51.4673 80.1825 50.6863C78.6968 49.2006 76.933 48.022 74.9919 47.2179C73.0507 46.4139 70.9702 46 68.8692 46Z" fill="black"/>
    <path d="M68.8691 64C71.0782 64 72.869 62.2091 72.869 60C72.869 57.7909 71.0782 56 68.8691 56C66.6601 56 64.8693 57.7909 64.8693 60C64.8693 62.2091 66.6601 64 68.8691 64Z" fill="black"/>
  </g>
</svg>